<svg xmlns="http://www.w3.org/2000/svg" width="1440" height="820"><rect width="1440" height="820" fill="#0e1117"/><text x="58" y="60" font-size="30" font-family="Arial" font-weight="700" fill="#f3f4f6">DocuMind</text><text x="58" y="88" font-size="14" font-family="Arial" fill="#9ca3af">Multimodal knowledge assistant</text><rect x="55" y="130" width="1330" height="605" rx="18" fill="#151a23" stroke="#2c3442"/><text x="90" y="175" font-size="24" font-family="Arial" font-weight="700" fill="#f3f4f6">Knowledge Library</text><text x="90" y="210" font-size="14" font-family="Arial" fill="#9ca3af">Indexed content remains searchable across application restarts.</text><text x="90" y="265" font-size="13" font-family="Arial" font-weight="700" fill="#9ca3af">Source</text><text x="620" y="265" font-size="13" font-family="Arial" font-weight="700" fill="#9ca3af">Type</text><text x="790" y="265" font-size="13" font-family="Arial" font-weight="700" fill="#9ca3af">Indexed content</text><text x="1190" y="265" font-size="13" font-family="Arial" font-weight="700" fill="#9ca3af">Status</text><line x1="90" y1="292" x2="1340" y2="292" stroke="#2c3442" stroke-width="2"/><g font-family="Arial"><text x="90" y="330" font-size="14" font-weight="700" fill="#f3f4f6">research_report.pdf</text><text x="620" y="330" font-size="13" fill="#f3f4f6">PDF</text><text x="790" y="330" font-size="13" fill="#9ca3af">24 pages · 136 chunks</text><text x="1190" y="330" font-size="13" font-weight="700" fill="#2fb171">Indexed</text><line x1="90" y1="357" x2="1340" y2="357" stroke="#2c3442"/><text x="90" y="400" font-size="14" font-weight="700" fill="#f3f4f6">architecture.png</text><text x="620" y="400" font-size="13" fill="#f3f4f6">Image</text><text x="790" y="400" font-size="13" fill="#9ca3af">visual summary + OCR context</text><text x="1190" y="400" font-size="13" font-weight="700" fill="#2fb171">Indexed</text><line x1="90" y1="427" x2="1340" y2="427" stroke="#2c3442"/><text x="90" y="470" font-size="14" font-weight="700" fill="#f3f4f6">meeting_audio.m4a</text><text x="620" y="470" font-size="13" fill="#f3f4f6">Audio</text><text x="790" y="470" font-size="13" fill="#9ca3af">18 min transcript summary</text><text x="1190" y="470" font-size="13" font-weight="700" fill="#2fb171">Indexed</text><line x1="90" y1="497" x2="1340" y2="497" stroke="#2c3442"/><text x="90" y="540" font-size="14" font-weight="700" fill="#f3f4f6">product_demo.mp4</text><text x="620" y="540" font-size="13" fill="#f3f4f6">Video</text><text x="790" y="540" font-size="13" fill="#9ca3af">visual/audio summary + timestamps</text><text x="1190" y="540" font-size="13" font-weight="700" fill="#2fb171">Indexed</text><line x1="90" y1="567" x2="1340" y2="567" stroke="#2c3442"/><text x="90" y="610" font-size="14" font-weight="700" fill="#f3f4f6">planning.xlsx</text><text x="620" y="610" font-size="13" fill="#f3f4f6">Spreadsheet</text><text x="790" y="610" font-size="13" fill="#9ca3af">5 sheets · 42 chunks</text><text x="1190" y="610" font-size="13" font-weight="700" fill="#2fb171">Indexed</text></g><rect x="90" y="665" width="470" height="45" rx="12" fill="#1f2633"/><text x="110" y="693" font-size="13" font-family="Arial" font-weight="700" fill="#f3f4f6">5 sources indexed · persistent vector store</text></svg>